<?xml version="1.0" standalone="no"?>
<!DOCTYPE svg PUBLIC "-//W3C//DTD SVG 20010904//EN"
 "http://www.w3.org/TR/2001/REC-SVG-20010904/DTD/svg10.dtd">
<svg version="1.0" xmlns="http://www.w3.org/2000/svg"
 width="1058.000000pt" height="236.000000pt" viewBox="0 0 1058.000000 236.000000"
 preserveAspectRatio="xMidYMid meet">

<g transform="translate(0.000000,236.000000) scale(0.100000,-0.100000)"
fill="#000000" stroke="none">
<path d="M5537 1629 c-122 -29 -219 -106 -274 -217 -38 -75 -38 -77 -38 -197
0 -115 1 -123 32 -185 42 -85 100 -143 189 -186 235 -116 531 -30 637 185 31
63 32 70 32 186 0 114 -2 123 -32 187 -54 115 -146 189 -276 224 -57 15 -211
17 -270 3z m242 -184 c44 -22 98 -82 113 -124 21 -59 16 -179 -10 -227 -23
-45 -80 -100 -121 -116 -45 -18 -153 -12 -197 10 -89 46 -127 116 -126 234 0
120 50 197 151 235 44 16 148 10 190 -12z"/>
<path d="M6513 1625 c-206 -57 -329 -236 -309 -447 16 -175 114 -301 279 -357
127 -44 297 -35 419 20 111 52 109 47 106 245 l-3 169 -164 3 c-114 2 -168 -1
-178 -9 -10 -9 -13 -31 -11 -83 l3 -71 72 -3 c56 -2 75 -7 82 -20 14 -27 1
-81 -23 -94 -29 -16 -162 -15 -210 1 -49 17 -112 73 -137 122 -27 53 -27 175
0 228 70 136 246 181 405 102 35 -17 67 -31 72 -31 15 0 85 116 79 131 -8 20
-61 52 -130 79 -77 30 -271 38 -352 15z"/>
<path d="M7378 1617 c-171 -59 -270 -183 -285 -359 -10 -119 27 -242 97 -322
126 -144 401 -187 602 -95 111 52 109 47 106 245 l-3 169 -175 0 -175 0 0 -80
0 -80 72 -3 c82 -3 100 -18 88 -73 -9 -41 -38 -53 -125 -53 -92 0 -141 16
-193 63 -54 49 -79 108 -79 188 0 119 71 213 186 244 66 18 172 5 240 -31 32
-16 64 -30 70 -30 16 0 89 117 83 133 -7 20 -116 74 -182 92 -92 23 -245 20
-327 -8z"/>
<path d="M9727 1626 c-99 -36 -155 -106 -164 -205 -9 -96 27 -175 96 -210 21
-11 94 -38 163 -60 69 -23 132 -49 141 -59 19 -21 22 -64 7 -92 -26 -48 -153
-50 -279 -5 -38 14 -75 25 -83 25 -14 0 -58 -116 -58 -153 0 -22 108 -55 230
-69 168 -20 324 22 377 100 35 53 49 131 34 198 -22 99 -77 140 -273 205 -117
39 -127 45 -138 75 -15 39 11 81 56 90 53 10 166 -3 227 -26 28 -11 56 -20 60
-20 11 0 57 105 57 130 0 28 -34 47 -125 70 -93 24 -268 27 -328 6z"/>
<path d="M377 1623 c-4 -3 -7 -42 -7 -85 l0 -78 116 0 c63 0 124 -5 135 -10
18 -10 19 -24 19 -324 0 -277 2 -315 16 -320 29 -11 169 -7 182 6 9 9 12 92
12 313 0 225 3 305 13 318 10 14 34 17 132 19 l120 3 3 83 3 82 -369 0 c-203
0 -372 -3 -375 -7z"/>
<path d="M1562 1617 c-6 -7 -58 -112 -115 -232 -58 -121 -141 -296 -186 -389
-44 -92 -81 -174 -81 -182 0 -11 19 -14 88 -14 123 0 127 2 162 75 20 42 37
65 52 69 39 10 308 7 329 -5 11 -5 31 -36 45 -67 14 -31 30 -60 37 -64 7 -4
54 -8 105 -8 71 0 94 3 98 14 3 8 -21 75 -54 148 -33 73 -92 205 -132 293 -75
169 -79 176 -134 298 l-35 77 -84 0 c-57 0 -88 -4 -95 -13z m147 -389 c47
-120 48 -118 -58 -118 -52 0 -93 4 -96 10 -6 10 50 139 81 188 22 33 37 17 73
-80z"/>
<path d="M2237 1624 c-4 -4 -7 -186 -7 -404 0 -295 3 -399 12 -408 16 -16 160
-16 176 0 8 8 12 65 13 188 0 183 5 215 27 201 8 -4 50 -77 96 -162 l82 -154
54 0 54 0 37 65 c20 36 60 109 89 163 29 54 58 96 64 94 7 -2 12 -70 14 -197
2 -140 6 -196 15 -202 22 -14 163 -9 176 6 8 9 10 126 9 412 l-3 399 -95 0
-95 0 -120 -212 c-125 -221 -137 -239 -153 -229 -5 3 -47 72 -93 153 -45 82
-101 180 -124 218 l-41 70 -90 3 c-50 1 -93 0 -97 -4z"/>
<path d="M3257 1624 c-4 -4 -7 -40 -7 -80 0 -81 -1 -80 80 -86 l35 -3 3 -237
2 -238 -22 -5 c-13 -2 -39 -6 -58 -7 l-35 -3 -3 -60 c-2 -32 -1 -70 3 -82 l5
-23 218 2 217 3 0 80 0 80 -47 3 c-25 2 -51 9 -57 16 -8 9 -11 87 -9 242 l3
229 35 3 c83 6 81 4 78 90 l-3 77 -216 3 c-118 1 -218 -1 -222 -4z"/>
<path d="M3806 1612 c-10 -29 -3 -775 6 -794 8 -17 32 -18 293 -18 156 0 290
3 299 6 13 5 16 22 16 85 0 56 -4 79 -12 81 -7 0 -95 2 -195 2 -100 1 -185 5
-190 9 -4 5 -10 151 -13 325 l-5 317 -97 3 c-87 2 -97 1 -102 -16z"/>
<path d="M4524 1615 c-8 -21 2 -791 11 -805 9 -15 577 -14 593 2 17 17 16 154
0 160 -7 3 -89 4 -183 3 -93 -2 -180 1 -192 6 l-23 8 -2 318 -3 318 -98 3
c-81 2 -98 0 -103 -13z"/>
<path d="M8032 1218 l3 -413 308 -3 c205 -1 314 1 328 8 17 10 20 20 17 83
l-3 72 -220 5 -220 5 0 80 0 80 190 5 190 5 3 78 3 77 -184 0 c-129 0 -187 4
-195 12 -7 7 -12 39 -12 73 0 34 5 66 12 73 9 9 70 12 215 12 l203 0 5 23 c4
13 5 48 3 78 l-3 54 -323 3 -322 2 2 -412z"/>
<path d="M8782 1218 l3 -413 89 -3 c55 -2 93 1 100 8 6 6 13 59 16 118 l5 107
70 0 70 0 50 -104 c28 -57 59 -110 70 -117 24 -18 190 -20 201 -3 4 7 -21 69
-56 139 l-63 128 55 53 c122 120 120 305 -6 416 -79 70 -109 76 -374 81 l-232
4 2 -414z m421 218 c73 -36 88 -113 34 -172 -32 -35 -37 -37 -120 -44 -133
-12 -127 -18 -127 114 0 62 3 116 8 120 14 15 166 1 205 -18z"/>
</g>
</svg>
