<?xml version="1.0" encoding="UTF-8"?>
<svg xmlns="http://www.w3.org/2000/svg" xmlns:xlink="http://www.w3.org/1999/xlink" width="200px" height="65px" viewBox="0 0 200 65" version="1.1">
<g id="surface1">
<path style=" stroke:none;fill-rule:nonzero;fill:rgb(0%,0%,0%);fill-opacity:1;" d="M 104.628906 20.132812 C 102.324219 20.933594 100.492188 23.054688 99.453125 26.109375 C 98.734375 28.175781 98.734375 28.230469 98.734375 31.535156 C 98.734375 34.703125 98.753906 34.921875 99.339844 36.632812 C 100.132812 38.972656 101.226562 40.570312 102.910156 41.753906 C 107.351562 44.949219 112.945312 42.582031 114.945312 36.660156 C 115.53125 34.921875 115.550781 34.730469 115.550781 31.535156 C 115.550781 28.394531 115.515625 28.148438 114.945312 26.386719 C 113.925781 23.21875 112.1875 21.179688 109.730469 20.214844 C 108.65625 19.804688 105.746094 19.746094 104.628906 20.132812 Z M 109.203125 25.203125 C 110.035156 25.808594 111.054688 27.460938 111.335938 28.617188 C 111.734375 30.242188 111.640625 33.546875 111.148438 34.867188 C 110.714844 36.109375 109.636719 37.621094 108.863281 38.0625 C 108.011719 38.558594 105.972656 38.394531 105.140625 37.789062 C 103.457031 36.519531 102.738281 34.59375 102.757812 31.34375 C 102.757812 28.039062 103.703125 25.917969 105.613281 24.871094 C 106.445312 24.429688 108.410156 24.59375 109.203125 25.203125 Z M 109.203125 25.203125 "/>
<path style=" stroke:none;fill-rule:nonzero;fill:rgb(0%,0%,0%);fill-opacity:1;" d="M 123.074219 20.242188 C 119.179688 21.8125 116.855469 26.742188 117.234375 32.554688 C 117.535156 37.375 119.386719 40.84375 122.503906 42.386719 C 124.90625 43.597656 128.117188 43.351562 130.421875 41.835938 C 132.519531 40.40625 132.484375 40.542969 132.425781 35.089844 L 132.371094 30.433594 L 129.269531 30.351562 C 127.117188 30.296875 126.097656 30.378906 125.90625 30.597656 C 125.71875 30.847656 125.660156 31.453125 125.699219 32.886719 L 125.753906 34.839844 L 127.117188 34.921875 C 128.175781 34.980469 128.535156 35.117188 128.664062 35.472656 C 128.929688 36.21875 128.683594 37.707031 128.230469 38.0625 C 127.683594 38.503906 125.171875 38.476562 124.261719 38.035156 C 123.335938 37.566406 122.148438 36.027344 121.675781 34.675781 C 121.164062 33.214844 121.164062 29.855469 121.675781 28.394531 C 122.996094 24.652344 126.324219 23.410156 129.328125 25.585938 C 129.988281 26.054688 130.59375 26.441406 130.6875 26.441406 C 130.972656 26.441406 132.292969 23.246094 132.179688 22.832031 C 132.03125 22.28125 131.027344 21.402344 129.722656 20.65625 C 128.269531 19.832031 124.601562 19.609375 123.074219 20.242188 Z M 123.074219 20.242188 "/>
<path style=" stroke:none;fill-rule:nonzero;fill:rgb(0%,0%,0%);fill-opacity:1;" d="M 139.417969 20.464844 C 136.1875 22.089844 134.316406 25.503906 134.03125 30.351562 C 133.84375 33.628906 134.542969 37.015625 135.867188 39.21875 C 138.246094 43.1875 143.441406 44.371094 147.242188 41.835938 C 149.339844 40.40625 149.300781 40.542969 149.246094 35.089844 L 149.1875 30.433594 L 142.574219 30.433594 L 142.574219 34.839844 L 143.933594 34.921875 C 145.484375 35.007812 145.824219 35.417969 145.597656 36.933594 C 145.425781 38.0625 144.878906 38.394531 143.234375 38.394531 C 141.496094 38.394531 140.570312 37.953125 139.589844 36.660156 C 138.566406 35.308594 138.09375 33.683594 138.09375 31.480469 C 138.09375 28.203125 139.4375 25.613281 141.609375 24.761719 C 142.855469 24.265625 144.859375 24.621094 146.144531 25.613281 C 146.75 26.054688 147.355469 26.441406 147.46875 26.441406 C 147.769531 26.441406 149.148438 23.21875 149.035156 22.777344 C 148.902344 22.226562 146.84375 20.738281 145.597656 20.242188 C 143.859375 19.609375 140.96875 19.691406 139.417969 20.464844 Z M 139.417969 20.464844 "/>
<path style=" stroke:none;fill-rule:nonzero;fill:rgb(0%,0%,0%);fill-opacity:1;" d="M 183.804688 20.214844 C 181.933594 21.207031 180.875 23.136719 180.707031 25.863281 C 180.535156 28.507812 181.21875 30.683594 182.519531 31.644531 C 182.917969 31.949219 184.296875 32.691406 185.601562 33.296875 C 186.90625 33.933594 188.09375 34.648438 188.265625 34.921875 C 188.625 35.503906 188.679688 36.6875 188.398438 37.457031 C 187.90625 38.78125 185.507812 38.835938 183.125 37.59375 C 182.40625 37.210938 181.707031 36.90625 181.558594 36.90625 C 181.292969 36.90625 180.460938 40.101562 180.460938 41.121094 C 180.460938 41.726562 182.5 42.636719 184.808594 43.019531 C 187.980469 43.570312 190.929688 42.414062 191.929688 40.265625 C 192.59375 38.808594 192.855469 36.660156 192.574219 34.8125 C 192.15625 32.085938 191.117188 30.957031 187.414062 29.167969 C 185.203125 28.09375 185.015625 27.929688 184.808594 27.101562 C 184.523438 26.027344 185.015625 24.871094 185.867188 24.621094 C 186.867188 24.347656 189.003906 24.707031 190.15625 25.339844 C 190.683594 25.640625 191.214844 25.890625 191.289062 25.890625 C 191.496094 25.890625 192.367188 22.996094 192.367188 22.308594 C 192.367188 21.539062 191.722656 21.015625 190.003906 20.382812 C 188.246094 19.71875 184.941406 19.636719 183.804688 20.214844 Z M 183.804688 20.214844 "/>
<path style=" stroke:none;fill-rule:nonzero;fill:rgb(0%,0%,0%);fill-opacity:1;" d="M 7.125 20.296875 C 7.046875 20.382812 6.992188 21.457031 6.992188 22.640625 L 6.992188 24.789062 L 9.183594 24.789062 C 10.375 24.789062 11.527344 24.925781 11.734375 25.0625 C 12.074219 25.339844 12.09375 25.722656 12.09375 33.988281 C 12.09375 41.617188 12.132812 42.664062 12.394531 42.800781 C 12.945312 43.105469 15.589844 42.992188 15.835938 42.636719 C 16.003906 42.386719 16.0625 40.101562 16.0625 34.015625 C 16.0625 27.816406 16.117188 25.613281 16.308594 25.257812 C 16.496094 24.871094 16.949219 24.789062 18.800781 24.734375 L 21.070312 24.652344 L 21.125 22.363281 L 21.183594 20.105469 L 14.210938 20.105469 C 10.375 20.105469 7.179688 20.1875 7.125 20.296875 Z M 7.125 20.296875 "/>
<path style=" stroke:none;fill-rule:nonzero;fill:rgb(0%,0%,0%);fill-opacity:1;" d="M 29.515625 20.464844 C 29.402344 20.65625 28.421875 23.546875 27.34375 26.855469 C 26.246094 30.1875 24.679688 35.007812 23.828125 37.566406 C 22.996094 40.101562 22.296875 42.359375 22.296875 42.582031 C 22.296875 42.882812 22.65625 42.964844 23.960938 42.964844 C 26.285156 42.964844 26.359375 42.910156 27.023438 40.902344 C 27.398438 39.742188 27.722656 39.109375 28.003906 39 C 28.742188 38.722656 33.824219 38.808594 34.222656 39.136719 C 34.429688 39.277344 34.808594 40.128906 35.070312 40.984375 C 35.335938 41.835938 35.640625 42.636719 35.769531 42.746094 C 35.902344 42.855469 36.792969 42.964844 37.753906 42.964844 C 39.097656 42.964844 39.53125 42.882812 39.605469 42.582031 C 39.664062 42.359375 39.210938 40.515625 38.585938 38.503906 C 37.964844 36.492188 36.847656 32.859375 36.09375 30.433594 C 34.675781 25.78125 34.597656 25.585938 33.558594 22.226562 L 32.898438 20.105469 L 31.3125 20.105469 C 30.234375 20.105469 29.648438 20.214844 29.515625 20.464844 Z M 32.292969 31.179688 C 33.183594 34.484375 33.199219 34.429688 31.199219 34.429688 C 30.214844 34.429688 29.441406 34.316406 29.382812 34.152344 C 29.269531 33.878906 30.328125 30.324219 30.914062 28.972656 C 31.332031 28.066406 31.613281 28.507812 32.292969 31.179688 Z M 32.292969 31.179688 "/>
<path style=" stroke:none;fill-rule:nonzero;fill:rgb(0%,0%,0%);fill-opacity:1;" d="M 42.269531 20.269531 C 42.195312 20.382812 42.140625 25.394531 42.140625 31.398438 C 42.140625 39.523438 42.195312 42.386719 42.367188 42.636719 C 42.667969 43.078125 45.390625 43.078125 45.691406 42.636719 C 45.84375 42.414062 45.917969 40.84375 45.9375 37.457031 C 45.9375 32.417969 46.03125 31.535156 46.449219 31.921875 C 46.597656 32.03125 47.390625 34.042969 48.261719 36.382812 L 49.8125 40.625 L 51.851562 40.625 L 52.550781 38.835938 C 52.929688 37.84375 53.683594 35.832031 54.234375 34.34375 C 54.78125 32.859375 55.328125 31.703125 55.441406 31.757812 C 55.574219 31.8125 55.667969 33.683594 55.707031 37.183594 C 55.746094 41.039062 55.820312 42.582031 55.988281 42.746094 C 56.40625 43.132812 59.070312 42.992188 59.316406 42.582031 C 59.46875 42.332031 59.503906 39.109375 59.484375 31.234375 L 59.429688 20.242188 L 55.839844 20.242188 L 53.570312 26.082031 C 51.210938 32.167969 50.984375 32.664062 50.679688 32.390625 C 50.585938 32.308594 49.792969 30.40625 48.921875 28.175781 C 48.074219 25.917969 47.015625 23.21875 46.578125 22.171875 L 45.804688 20.242188 L 44.105469 20.160156 C 43.160156 20.132812 42.347656 20.160156 42.269531 20.269531 Z M 42.269531 20.269531 "/>
<path style=" stroke:none;fill-rule:nonzero;fill:rgb(0%,0%,0%);fill-opacity:1;" d="M 61.546875 20.269531 C 61.46875 20.382812 61.414062 21.371094 61.414062 22.472656 C 61.414062 24.707031 61.394531 24.679688 62.925781 24.84375 L 63.585938 24.925781 L 63.644531 31.453125 L 63.679688 38.007812 L 63.265625 38.144531 C 63.019531 38.203125 62.527344 38.3125 62.167969 38.339844 L 61.507812 38.421875 L 61.453125 40.074219 C 61.414062 40.957031 61.433594 42.003906 61.507812 42.332031 L 61.601562 42.964844 L 65.722656 42.910156 L 69.824219 42.828125 L 69.824219 38.421875 L 68.933594 38.339844 C 68.460938 38.285156 67.96875 38.089844 67.855469 37.898438 C 67.707031 37.652344 67.648438 35.503906 67.6875 31.234375 L 67.742188 24.925781 L 68.40625 24.84375 C 69.972656 24.679688 69.9375 24.734375 69.878906 22.363281 L 69.824219 20.242188 L 65.742188 20.160156 C 63.511719 20.132812 61.621094 20.1875 61.546875 20.269531 Z M 61.546875 20.269531 "/>
<path style=" stroke:none;fill-rule:nonzero;fill:rgb(0%,0%,0%);fill-opacity:1;" d="M 71.917969 20.601562 C 71.730469 21.402344 71.863281 41.945312 72.035156 42.46875 C 72.183594 42.9375 72.636719 42.964844 77.570312 42.964844 C 80.519531 42.964844 83.050781 42.882812 83.21875 42.800781 C 83.464844 42.664062 83.523438 42.195312 83.523438 40.460938 C 83.523438 38.917969 83.445312 38.285156 83.296875 38.230469 C 83.164062 38.230469 81.5 38.171875 79.609375 38.171875 C 77.722656 38.144531 76.113281 38.035156 76.019531 37.925781 C 75.945312 37.789062 75.832031 33.765625 75.773438 28.972656 L 75.679688 20.242188 L 73.847656 20.160156 C 72.203125 20.105469 72.015625 20.132812 71.917969 20.601562 Z M 71.917969 20.601562 "/>
<path style=" stroke:none;fill-rule:nonzero;fill:rgb(0%,0%,0%);fill-opacity:1;" d="M 85.488281 20.519531 C 85.335938 21.097656 85.523438 42.304688 85.695312 42.691406 C 85.867188 43.105469 96.597656 43.078125 96.902344 42.636719 C 97.222656 42.167969 97.203125 38.394531 96.902344 38.230469 C 96.769531 38.144531 95.21875 38.117188 93.441406 38.144531 C 91.6875 38.203125 90.042969 38.117188 89.816406 37.980469 L 89.378906 37.761719 L 89.34375 29.003906 L 89.285156 20.242188 L 87.433594 20.160156 C 85.902344 20.105469 85.582031 20.160156 85.488281 20.519531 Z M 85.488281 20.519531 "/>
<path style=" stroke:none;fill-rule:nonzero;fill:rgb(0%,0%,0%);fill-opacity:1;" d="M 151.777344 31.453125 L 151.832031 42.828125 L 157.652344 42.910156 C 161.527344 42.9375 163.585938 42.882812 163.851562 42.691406 C 164.171875 42.414062 164.230469 42.140625 164.171875 40.40625 L 164.117188 38.421875 L 159.957031 38.285156 L 155.800781 38.144531 L 155.800781 33.738281 L 162.980469 33.464844 L 163.039062 31.316406 L 163.09375 29.195312 L 159.617188 29.195312 C 157.179688 29.195312 156.085938 29.085938 155.933594 28.863281 C 155.800781 28.671875 155.707031 27.789062 155.707031 26.855469 C 155.707031 25.917969 155.800781 25.035156 155.933594 24.84375 C 156.105469 24.59375 157.257812 24.511719 159.996094 24.511719 L 163.832031 24.511719 L 163.925781 23.878906 C 164.003906 23.519531 164.019531 22.558594 163.984375 21.730469 L 163.925781 20.242188 L 157.824219 20.160156 L 151.738281 20.105469 Z M 151.777344 31.453125 "/>
<path style=" stroke:none;fill-rule:nonzero;fill:rgb(0%,0%,0%);fill-opacity:1;" d="M 165.949219 31.453125 L 166.003906 42.828125 L 167.6875 42.910156 C 168.726562 42.964844 169.445312 42.882812 169.578125 42.691406 C 169.691406 42.527344 169.824219 41.066406 169.878906 39.441406 L 169.972656 36.492188 L 172.617188 36.492188 L 173.5625 39.359375 C 174.09375 40.929688 174.679688 42.386719 174.886719 42.582031 C 175.339844 43.078125 178.476562 43.132812 178.683594 42.664062 C 178.761719 42.46875 178.289062 40.761719 177.625 38.835938 L 176.4375 35.308594 L 177.476562 33.847656 C 179.78125 30.542969 179.742188 25.449219 177.363281 22.390625 C 175.871094 20.464844 175.300781 20.296875 170.292969 20.160156 L 165.910156 20.050781 Z M 173.902344 25.449219 C 175.285156 26.441406 175.566406 28.5625 174.546875 30.1875 C 173.941406 31.152344 173.847656 31.207031 172.277344 31.398438 C 169.765625 31.730469 169.878906 31.894531 169.878906 28.257812 C 169.878906 26.550781 169.9375 25.0625 170.03125 24.953125 C 170.292969 24.539062 173.167969 24.925781 173.902344 25.449219 Z M 173.902344 25.449219 "/>
</g>
</svg>
