<?xml version="1.0" encoding="UTF-8"?>
<svg xmlns="http://www.w3.org/2000/svg" xmlns:xlink="http://www.w3.org/1999/xlink" width="90px" height="28px" viewBox="0 0 90 28" version="1.1">
<g id="surface1">
<path style=" stroke:none;fill-rule:nonzero;fill:rgb(0%,0%,0%);fill-opacity:1;" d="M 47.082031 8.671875 C 46.046875 9.015625 45.222656 9.929688 44.753906 11.246094 C 44.429688 12.136719 44.429688 12.160156 44.429688 13.585938 C 44.429688 14.949219 44.4375 15.042969 44.703125 15.78125 C 45.058594 16.789062 45.550781 17.476562 46.308594 17.988281 C 48.308594 19.363281 50.824219 18.34375 51.726562 15.792969 C 51.988281 15.042969 52 14.960938 52 13.585938 C 52 12.230469 51.980469 12.125 51.726562 11.367188 C 51.265625 10 50.484375 9.125 49.378906 8.707031 C 48.894531 8.53125 47.585938 8.507812 47.082031 8.671875 Z M 49.140625 10.855469 C 49.515625 11.117188 49.972656 11.828125 50.101562 12.328125 C 50.28125 13.027344 50.238281 14.449219 50.015625 15.019531 C 49.820312 15.554688 49.335938 16.207031 48.988281 16.398438 C 48.605469 16.609375 47.6875 16.539062 47.3125 16.277344 C 46.554688 15.730469 46.234375 14.902344 46.242188 13.5 C 46.242188 12.078125 46.667969 11.164062 47.527344 10.714844 C 47.898438 10.523438 48.785156 10.59375 49.140625 10.855469 Z M 49.140625 10.855469 "/>
<path style=" stroke:none;fill-rule:nonzero;fill:rgb(0%,0%,0%);fill-opacity:1;" d="M 55.382812 8.71875 C 53.632812 9.398438 52.585938 11.519531 52.753906 14.023438 C 52.890625 16.101562 53.722656 17.59375 55.128906 18.257812 C 56.207031 18.78125 57.652344 18.675781 58.691406 18.023438 C 59.632812 17.40625 59.617188 17.464844 59.59375 15.117188 L 59.566406 13.109375 L 58.171875 13.074219 C 57.203125 13.050781 56.742188 13.085938 56.65625 13.179688 C 56.574219 13.289062 56.546875 13.550781 56.566406 14.167969 L 56.589844 15.007812 L 57.203125 15.042969 C 57.679688 15.066406 57.839844 15.128906 57.898438 15.28125 C 58.019531 15.601562 57.90625 16.242188 57.703125 16.398438 C 57.457031 16.585938 56.328125 16.574219 55.917969 16.382812 C 55.5 16.183594 54.964844 15.519531 54.753906 14.9375 C 54.523438 14.308594 54.523438 12.859375 54.753906 12.230469 C 55.347656 10.617188 56.84375 10.085938 58.199219 11.023438 C 58.496094 11.222656 58.765625 11.390625 58.808594 11.390625 C 58.9375 11.390625 59.53125 10.011719 59.480469 9.835938 C 59.414062 9.597656 58.960938 9.21875 58.375 8.898438 C 57.722656 8.542969 56.070312 8.449219 55.382812 8.71875 Z M 55.382812 8.71875 "/>
<path style=" stroke:none;fill-rule:nonzero;fill:rgb(0%,0%,0%);fill-opacity:1;" d="M 62.738281 8.816406 C 61.285156 9.515625 60.441406 10.988281 60.316406 13.074219 C 60.230469 14.488281 60.542969 15.945312 61.140625 16.894531 C 62.210938 18.601562 64.550781 19.113281 66.257812 18.023438 C 67.203125 17.40625 67.183594 17.464844 67.160156 15.117188 L 67.132812 13.109375 L 64.15625 13.109375 L 64.15625 15.007812 L 64.769531 15.042969 C 65.46875 15.078125 65.621094 15.257812 65.519531 15.910156 C 65.441406 16.398438 65.195312 16.539062 64.457031 16.539062 C 63.671875 16.539062 63.257812 16.347656 62.816406 15.792969 C 62.355469 15.210938 62.144531 14.511719 62.144531 13.5625 C 62.144531 12.148438 62.746094 11.035156 63.722656 10.667969 C 64.285156 10.453125 65.1875 10.605469 65.765625 11.035156 C 66.039062 11.222656 66.308594 11.390625 66.359375 11.390625 C 66.496094 11.390625 67.117188 10 67.066406 9.8125 C 67.007812 9.574219 66.078125 8.933594 65.519531 8.71875 C 64.738281 8.449219 63.433594 8.484375 62.738281 8.816406 Z M 62.738281 8.816406 "/>
<path style=" stroke:none;fill-rule:nonzero;fill:rgb(0%,0%,0%);fill-opacity:1;" d="M 82.710938 8.707031 C 81.871094 9.136719 81.394531 9.964844 81.316406 11.140625 C 81.242188 12.28125 81.546875 13.21875 82.132812 13.632812 C 82.3125 13.761719 82.933594 14.082031 83.519531 14.34375 C 84.105469 14.617188 84.644531 14.925781 84.71875 15.042969 C 84.882812 15.292969 84.90625 15.804688 84.777344 16.136719 C 84.558594 16.707031 83.476562 16.730469 82.40625 16.195312 C 82.082031 16.027344 81.769531 15.898438 81.699219 15.898438 C 81.582031 15.898438 81.207031 17.273438 81.207031 17.714844 C 81.207031 17.972656 82.125 18.367188 83.164062 18.53125 C 84.59375 18.769531 85.917969 18.269531 86.367188 17.347656 C 86.667969 16.71875 86.785156 15.792969 86.65625 14.996094 C 86.472656 13.820312 86.003906 13.335938 84.335938 12.5625 C 83.34375 12.101562 83.257812 12.03125 83.164062 11.675781 C 83.035156 11.210938 83.257812 10.714844 83.640625 10.605469 C 84.089844 10.488281 85.050781 10.640625 85.570312 10.914062 C 85.808594 11.046875 86.046875 11.152344 86.078125 11.152344 C 86.171875 11.152344 86.566406 9.90625 86.566406 9.609375 C 86.566406 9.277344 86.277344 9.050781 85.5 8.78125 C 84.710938 8.496094 83.222656 8.460938 82.710938 8.707031 Z M 82.710938 8.707031 "/>
<path style=" stroke:none;fill-rule:nonzero;fill:rgb(0%,0%,0%);fill-opacity:1;" d="M 3.207031 8.742188 C 3.171875 8.78125 3.144531 9.242188 3.144531 9.753906 L 3.144531 10.679688 L 4.132812 10.679688 C 4.667969 10.679688 5.1875 10.738281 5.28125 10.796875 C 5.433594 10.914062 5.441406 11.082031 5.441406 14.640625 C 5.441406 17.925781 5.460938 18.378906 5.578125 18.4375 C 5.824219 18.566406 7.015625 18.519531 7.125 18.367188 C 7.203125 18.257812 7.226562 17.273438 7.226562 14.652344 C 7.226562 11.984375 7.253906 11.035156 7.339844 10.878906 C 7.421875 10.714844 7.628906 10.679688 8.460938 10.652344 L 9.480469 10.617188 L 9.507812 9.632812 L 9.53125 8.660156 L 6.394531 8.660156 C 4.667969 8.660156 3.230469 8.695312 3.207031 8.742188 Z M 3.207031 8.742188 "/>
<path style=" stroke:none;fill-rule:nonzero;fill:rgb(0%,0%,0%);fill-opacity:1;" d="M 13.28125 8.816406 C 13.230469 8.898438 12.789062 10.144531 12.304688 11.566406 C 11.8125 13.003906 11.105469 15.078125 10.722656 16.183594 C 10.347656 17.273438 10.035156 18.246094 10.035156 18.34375 C 10.035156 18.472656 10.195312 18.507812 10.78125 18.507812 C 11.828125 18.507812 11.863281 18.484375 12.160156 17.617188 C 12.328125 17.121094 12.472656 16.847656 12.601562 16.800781 C 12.933594 16.679688 15.222656 16.71875 15.398438 16.859375 C 15.492188 16.917969 15.664062 17.285156 15.78125 17.652344 C 15.902344 18.023438 16.039062 18.367188 16.097656 18.414062 C 16.15625 18.460938 16.554688 18.507812 16.988281 18.507812 C 17.59375 18.507812 17.789062 18.472656 17.824219 18.34375 C 17.847656 18.246094 17.644531 17.453125 17.363281 16.585938 C 17.082031 15.71875 16.582031 14.152344 16.242188 13.109375 C 15.605469 11.105469 15.570312 11.023438 15.101562 9.574219 L 14.804688 8.660156 L 14.089844 8.660156 C 13.605469 8.660156 13.34375 8.707031 13.28125 8.816406 Z M 14.53125 13.429688 C 14.933594 14.855469 14.941406 14.832031 14.039062 14.832031 C 13.597656 14.832031 13.25 14.78125 13.222656 14.710938 C 13.171875 14.59375 13.648438 13.0625 13.910156 12.480469 C 14.097656 12.089844 14.226562 12.28125 14.53125 13.429688 Z M 14.53125 13.429688 "/>
<path style=" stroke:none;fill-rule:nonzero;fill:rgb(0%,0%,0%);fill-opacity:1;" d="M 19.023438 8.730469 C 18.988281 8.78125 18.960938 10.9375 18.960938 13.527344 C 18.960938 17.027344 18.988281 18.257812 19.066406 18.367188 C 19.199219 18.554688 20.425781 18.554688 20.5625 18.367188 C 20.628906 18.269531 20.664062 17.59375 20.671875 16.136719 C 20.671875 13.964844 20.714844 13.585938 20.902344 13.75 C 20.96875 13.796875 21.328125 14.664062 21.71875 15.671875 L 22.414062 17.5 L 23.332031 17.5 L 23.648438 16.730469 C 23.816406 16.300781 24.15625 15.4375 24.40625 14.792969 C 24.652344 14.152344 24.898438 13.65625 24.949219 13.679688 C 25.007812 13.703125 25.050781 14.511719 25.066406 16.015625 C 25.085938 17.679688 25.117188 18.34375 25.195312 18.414062 C 25.382812 18.578125 26.582031 18.519531 26.691406 18.34375 C 26.761719 18.234375 26.777344 16.847656 26.769531 13.453125 L 26.742188 8.71875 L 25.128906 8.71875 L 24.105469 11.234375 C 23.042969 13.859375 22.941406 14.070312 22.804688 13.953125 C 22.761719 13.917969 22.40625 13.097656 22.015625 12.136719 C 21.632812 11.164062 21.15625 10 20.960938 9.550781 L 20.613281 8.71875 L 19.847656 8.683594 C 19.421875 8.671875 19.054688 8.683594 19.023438 8.730469 Z M 19.023438 8.730469 "/>
<path style=" stroke:none;fill-rule:nonzero;fill:rgb(0%,0%,0%);fill-opacity:1;" d="M 27.695312 8.730469 C 27.660156 8.78125 27.636719 9.207031 27.636719 9.679688 C 27.636719 10.640625 27.628906 10.628906 28.316406 10.703125 L 28.613281 10.738281 L 28.640625 13.550781 L 28.65625 16.371094 L 28.46875 16.433594 C 28.359375 16.457031 28.136719 16.503906 27.976562 16.515625 L 27.679688 16.550781 L 27.652344 17.261719 C 27.636719 17.640625 27.644531 18.09375 27.679688 18.234375 L 27.722656 18.507812 L 29.574219 18.484375 L 31.421875 18.449219 L 31.421875 16.550781 L 31.019531 16.515625 C 30.808594 16.492188 30.585938 16.410156 30.535156 16.324219 C 30.46875 16.21875 30.441406 15.292969 30.460938 13.453125 L 30.484375 10.738281 L 30.78125 10.703125 C 31.488281 10.628906 31.472656 10.652344 31.445312 9.632812 L 31.421875 8.71875 L 29.582031 8.683594 C 28.578125 8.671875 27.730469 8.695312 27.695312 8.730469 Z M 27.695312 8.730469 "/>
<path style=" stroke:none;fill-rule:nonzero;fill:rgb(0%,0%,0%);fill-opacity:1;" d="M 32.363281 8.875 C 32.277344 9.21875 32.339844 18.070312 32.414062 18.292969 C 32.484375 18.496094 32.6875 18.507812 34.90625 18.507812 C 36.234375 18.507812 37.371094 18.472656 37.449219 18.4375 C 37.558594 18.378906 37.585938 18.175781 37.585938 17.429688 C 37.585938 16.765625 37.550781 16.492188 37.484375 16.46875 C 37.421875 16.46875 36.675781 16.445312 35.824219 16.445312 C 34.972656 16.433594 34.25 16.382812 34.210938 16.335938 C 34.175781 16.277344 34.125 14.546875 34.097656 12.480469 L 34.054688 8.71875 L 33.230469 8.683594 C 32.492188 8.660156 32.40625 8.671875 32.363281 8.875 Z M 32.363281 8.875 "/>
<path style=" stroke:none;fill-rule:nonzero;fill:rgb(0%,0%,0%);fill-opacity:1;" d="M 38.46875 8.839844 C 38.402344 9.089844 38.488281 18.222656 38.5625 18.390625 C 38.640625 18.566406 43.46875 18.554688 43.605469 18.367188 C 43.75 18.164062 43.742188 16.539062 43.605469 16.46875 C 43.546875 16.433594 42.847656 16.421875 42.050781 16.433594 C 41.257812 16.457031 40.519531 16.421875 40.417969 16.359375 L 40.222656 16.265625 L 40.203125 12.492188 L 40.179688 8.71875 L 39.34375 8.683594 C 38.65625 8.660156 38.511719 8.683594 38.46875 8.839844 Z M 38.46875 8.839844 "/>
<path style=" stroke:none;fill-rule:nonzero;fill:rgb(0%,0%,0%);fill-opacity:1;" d="M 68.300781 13.550781 L 68.324219 18.449219 L 70.945312 18.484375 C 72.6875 18.496094 73.613281 18.472656 73.734375 18.390625 C 73.878906 18.269531 73.902344 18.152344 73.878906 17.40625 L 73.851562 16.550781 L 70.109375 16.433594 L 70.109375 14.535156 L 71.726562 14.472656 L 73.34375 14.414062 L 73.367188 13.488281 L 73.394531 12.578125 L 71.828125 12.578125 C 70.730469 12.578125 70.238281 12.527344 70.171875 12.433594 C 70.109375 12.351562 70.066406 11.972656 70.066406 11.566406 C 70.066406 11.164062 70.109375 10.785156 70.171875 10.703125 C 70.246094 10.59375 70.765625 10.558594 72 10.558594 L 73.722656 10.558594 L 73.765625 10.285156 C 73.800781 10.132812 73.808594 9.71875 73.792969 9.359375 L 73.765625 8.71875 L 71.019531 8.683594 L 68.28125 8.660156 Z M 68.300781 13.550781 "/>
<path style=" stroke:none;fill-rule:nonzero;fill:rgb(0%,0%,0%);fill-opacity:1;" d="M 74.675781 13.550781 L 74.703125 18.449219 L 75.460938 18.484375 C 75.925781 18.507812 76.25 18.472656 76.308594 18.390625 C 76.359375 18.320312 76.421875 17.691406 76.445312 16.988281 L 76.488281 15.71875 L 77.679688 15.71875 L 78.105469 16.953125 C 78.34375 17.628906 78.605469 18.257812 78.699219 18.34375 C 78.902344 18.554688 80.316406 18.578125 80.40625 18.378906 C 80.441406 18.292969 80.230469 17.558594 79.933594 16.730469 L 79.394531 15.210938 L 79.863281 14.582031 C 80.902344 13.15625 80.882812 10.960938 79.8125 9.644531 C 79.140625 8.816406 78.886719 8.742188 76.632812 8.683594 L 74.660156 8.636719 Z M 78.257812 10.960938 C 78.878906 11.390625 79.003906 12.304688 78.546875 13.003906 C 78.273438 13.417969 78.230469 13.441406 77.527344 13.527344 C 76.394531 13.667969 76.445312 13.738281 76.445312 12.171875 C 76.445312 11.4375 76.472656 10.796875 76.511719 10.75 C 76.632812 10.570312 77.925781 10.738281 78.257812 10.960938 Z M 78.257812 10.960938 "/>
</g>
</svg>
